<?xml version="1.0" encoding="UTF-8"?>
<!DOCTYPE svg PUBLIC "-//W3C//DTD SVG 1.1//EN" "http://www.w3.org/Graphics/SVG/1.1/DTD/svg11.dtd">
<svg xmlns="http://www.w3.org/2000/svg" version="1.1" width="420px" height="420px" style="shape-rendering:geometricPrecision; text-rendering:geometricPrecision; image-rendering:optimizeQuality; fill-rule:evenodd; clip-rule:evenodd" xmlns:xlink="http://www.w3.org/1999/xlink">
<g><path style="opacity:1" fill="#000000" d="M 189.5,-0.5 C 194.833,-0.5 200.167,-0.5 205.5,-0.5C 205.718,5.56483 203.384,10.3982 198.5,14C 153.49,18.9883 113.823,35.9883 79.5,65C 41.6216,100.593 20.1216,144.426 15,196.5C 11.7213,202.723 6.55465,205.723 -0.5,205.5C -0.5,200.167 -0.5,194.833 -0.5,189.5C 10.5149,107.656 53.5149,49.4897 128.5,15C 148.287,7.13705 168.62,1.97038 189.5,-0.5 Z"/></g>
<g><path style="opacity:1" fill="#fefffe" d="M 205.5,-0.5 C 208.167,-0.5 210.833,-0.5 213.5,-0.5C 213.282,5.56483 215.616,10.3982 220.5,14C 265.51,18.9883 305.177,35.9883 339.5,65C 377.378,100.593 398.878,144.426 404,196.5C 407.279,202.723 412.445,205.723 419.5,205.5C 419.5,208.167 419.5,210.833 419.5,213.5C 413.435,213.282 408.602,215.616 405,220.5C 400.012,265.51 383.012,305.177 354,339.5C 318.407,377.378 274.574,398.878 222.5,404C 216.277,407.279 213.277,412.445 213.5,419.5C 210.833,419.5 208.167,419.5 205.5,419.5C 205.718,413.435 203.384,408.602 198.5,405C 153.49,400.012 113.823,383.012 79.5,354C 41.6216,318.407 20.1216,274.574 15,222.5C 11.7213,216.277 6.55465,213.277 -0.5,213.5C -0.5,210.833 -0.5,208.167 -0.5,205.5C 6.55465,205.723 11.7213,202.723 15,196.5C 20.1216,144.426 41.6216,100.593 79.5,65C 113.823,35.9883 153.49,18.9883 198.5,14C 203.384,10.3982 205.718,5.56483 205.5,-0.5 Z"/></g>
<g><path style="opacity:1" fill="#000000" d="M 213.5,-0.5 C 218.833,-0.5 224.167,-0.5 229.5,-0.5C 311.344,10.5149 369.51,53.5149 404,128.5C 411.863,148.287 417.03,168.62 419.5,189.5C 419.5,194.833 419.5,200.167 419.5,205.5C 412.445,205.723 407.279,202.723 404,196.5C 398.878,144.426 377.378,100.593 339.5,65C 305.177,35.9883 265.51,18.9883 220.5,14C 215.616,10.3982 213.282,5.56483 213.5,-0.5 Z"/></g>
<g><path style="opacity:1" fill="#020202" d="M 248.5,53.5 C 264.724,52.6917 280.724,54.1917 296.5,58C 297.578,58.6739 298.245,59.6739 298.5,61C 295.276,77.6211 291.61,94.1211 287.5,110.5C 258.417,98.5361 241.75,108.036 237.5,139C 250.829,139.5 264.163,139.667 277.5,139.5C 274.167,155.833 270.833,172.167 267.5,188.5C 253.753,187.862 240.253,188.529 227,190.5C 214.305,248.807 201.805,307.14 189.5,365.5C 166.167,365.5 142.833,365.5 119.5,365.5C 131.705,306.474 144.039,247.474 156.5,188.5C 146.81,188.832 137.144,188.498 127.5,187.5C 131.468,171.628 134.802,155.628 137.5,139.5C 147.172,139.666 156.839,139.5 166.5,139C 169.584,122.499 174.751,106.666 182,91.5C 193.024,73.4897 208.857,61.9897 229.5,57C 235.938,55.61 242.272,54.4434 248.5,53.5 Z"/></g>
<g><path style="opacity:1" fill="#000000" d="M -0.5,213.5 C 6.55465,213.277 11.7213,216.277 15,222.5C 20.1216,274.574 41.6216,318.407 79.5,354C 113.823,383.012 153.49,400.012 198.5,405C 203.384,408.602 205.718,413.435 205.5,419.5C 200.167,419.5 194.833,419.5 189.5,419.5C 107.656,408.485 49.4897,365.485 15,290.5C 7.13705,270.713 1.97038,250.38 -0.5,229.5C -0.5,224.167 -0.5,218.833 -0.5,213.5 Z"/></g>
<g><path style="opacity:1" fill="#000000" d="M 419.5,213.5 C 419.5,218.833 419.5,224.167 419.5,229.5C 408.485,311.344 365.485,369.51 290.5,404C 270.713,411.863 250.38,417.03 229.5,419.5C 224.167,419.5 218.833,419.5 213.5,419.5C 213.277,412.445 216.277,407.279 222.5,404C 274.574,398.878 318.407,377.378 354,339.5C 383.012,305.177 400.012,265.51 405,220.5C 408.602,215.616 413.435,213.282 419.5,213.5 Z"/></g>
</svg>
